{
  "accessors": [
    {
      "bufferView": 0,
      "componentType": 5125,
      "count": 6408,
      "type": "SCALAR"
    },
    {
      "bufferView": 1,
      "componentType": 5126,
      "count": 3579,
      "max": [
        450.053741455078,
        1757.68981933594,
        711.227111816406
      ],
      "min": [
        -455.384216308594,
        -326.719116210938,
        -1491.69165039062
      ],
      "type": "VEC3"
    },
    {
      "bufferView": 2,
      "componentType": 5126,
      "count": 3579,
      "type": "VEC3"
    },
    {
      "bufferView": 3,
      "componentType": 5126,
      "count": 3579,
      "type": "VEC4"
    },
    {
      "bufferView": 4,
      "componentType": 5126,
      "count": 3579,
      "type": "VEC2"
    },
    {
      "bufferView": 5,
      "componentType": 5125,
      "count": 74784,
      "type": "SCALAR"
    },
    {
      "bufferView": 6,
      "componentType": 5126,
      "count": 49826,
      "max": [
        224.649337768555,
        1645.45349121094,
        1124.33471679688
      ],
      "min": [
        -210.912521362305,
        -384.208618164062,
        -105.079399108887
      ],
      "type": "VEC3"
    },
    {
      "bufferView": 7,
      "componentType": 5126,
      "count": 49826,
      "type": "VEC3"
    },
    {
      "bufferView": 8,
      "componentType": 5126,
      "count": 49826,
      "type": "VEC4"
    },
    {
      "bufferView": 9,
      "componentType": 5126,
      "count": 49826,
      "type": "VEC2"
    },
    {
      "bufferView": 10,
      "componentType": 5125,
      "count": 15552,
      "type": "SCALAR"
    },
    {
      "bufferView": 11,
      "componentType": 5126,
      "count": 3725,
      "max": [
        499.400268554688,
        382.034240722656,
        480.35595703125
      ],
      "min": [
        -517.808166503906,
        -385.178344726562,
        -498.643493652344
      ],
      "type": "VEC3"
    },
    {
      "bufferView": 12,
      "componentType": 5126,
      "count": 3725,
      "type": "VEC3"
    },
    {
      "bufferView": 13,
      "componentType": 5126,
      "count": 3725,
      "type": "VEC4"
    },
    {
      "bufferView": 14,
      "componentType": 5126,
      "count": 3725,
      "type": "VEC2"
    },
    {
      "bufferView": 15,
      "componentType": 5125,
      "count": 56082,
      "type": "SCALAR"
    },
    {
      "bufferView": 16,
      "componentType": 5126,
      "count": 11591,
      "max": [
        491.572631835938,
        1074.09851074219,
        788.567138671875
      ],
      "min": [
        -514.9326171875,
        -91.9336547851562,
        -1485.61059570312
      ],
      "type": "VEC3"
    },
    {
      "bufferView": 17,
      "componentType": 5126,
      "count": 11591,
      "type": "VEC3"
    },
    {
      "bufferView": 18,
      "componentType": 5126,
      "count": 11591,
      "type": "VEC4"
    },
    {
      "bufferView": 19,
      "componentType": 5126,
      "count": 11591,
      "type": "VEC2"
    },
    {
      "bufferView": 20,
      "componentType": 5125,
      "count": 60,
      "type": "SCALAR"
    },
    {
      "bufferView": 21,
      "componentType": 5126,
      "count": 36,
      "max": [
        347.622619628906,
        503.559631347656,
        184.985885620117
      ],
      "min": [
        195.267303466797,
        442.398895263672,
        24.67333984375
      ],
      "type": "VEC3"
    },
    {
      "bufferView": 22,
      "componentType": 5126,
      "count": 36,
      "type": "VEC3"
    },
    {
      "bufferView": 23,
      "componentType": 5126,
      "count": 36,
      "type": "VEC4"
    },
    {
      "bufferView": 24,
      "componentType": 5126,
      "count": 36,
      "type": "VEC2"
    },
    {
      "bufferView": 25,
      "componentType": 5125,
      "count": 372,
      "type": "SCALAR"
    },
    {
      "bufferView": 26,
      "componentType": 5126,
      "count": 192,
      "max": [
        312.007629394531,
        640.662353515625,
        114.587295532227
      ],
      "min": [
        298.513702392578,
        465.673553466797,
        101.093399047852
      ],
      "type": "VEC3"
    },
    {
      "bufferView": 27,
      "componentType": 5126,
      "count": 192,
      "type": "VEC3"
    },
    {
      "bufferView": 28,
      "componentType": 5126,
      "count": 192,
      "type": "VEC4"
    },
    {
      "bufferView": 29,
      "componentType": 5126,
      "count": 192,
      "type": "VEC2"
    }
  ],
  "asset": {
    "generator": "Adobe Substance 3D Painter 10.1.1",
    "version": "2.0"
  },
  "bufferViews": [
    {
      "buffer": 0,
      "byteLength": 25632,
      "target": 34963
    },
    {
      "buffer": 0,
      "byteLength": 42948,
      "byteOffset": 25632,
      "target": 34962
    },
    {
      "buffer": 0,
      "byteLength": 42948,
      "byteOffset": 68580,
      "target": 34962
    },
    {
      "buffer": 0,
      "byteLength": 57264,
      "byteOffset": 111528,
      "target": 34962
    },
    {
      "buffer": 0,
      "byteLength": 28632,
      "byteOffset": 168792,
      "target": 34962
    },
    {
      "buffer": 0,
      "byteLength": 299136,
      "byteOffset": 197424,
      "target": 34963
    },
    {
      "buffer": 0,
      "byteLength": 597912,
      "byteOffset": 496560,
      "target": 34962
    },
    {
      "buffer": 0,
      "byteLength": 597912,
      "byteOffset": 1094472,
      "target": 34962
    },
    {
      "buffer": 0,
      "byteLength": 797216,
      "byteOffset": 1692384,
      "target": 34962
    },
    {
      "buffer": 0,
      "byteLength": 398608,
      "byteOffset": 2489600,
      "target": 34962
    },
    {
      "buffer": 0,
      "byteLength": 62208,
      "byteOffset": 2888208,
      "target": 34963
    },
    {
      "buffer": 0,
      "byteLength": 44700,
      "byteOffset": 2950416,
      "target": 34962
    },
    {
      "buffer": 0,
      "byteLength": 44700,
      "byteOffset": 2995116,
      "target": 34962
    },
    {
      "buffer": 0,
      "byteLength": 59600,
      "byteOffset": 3039816,
      "target": 34962
    },
    {
      "buffer": 0,
      "byteLength": 29800,
      "byteOffset": 3099416,
      "target": 34962
    },
    {
      "buffer": 0,
      "byteLength": 224328,
      "byteOffset": 3129216,
      "target": 34963
    },
    {
      "buffer": 0,
      "byteLength": 139092,
      "byteOffset": 3353544,
      "target": 34962
    },
    {
      "buffer": 0,
      "byteLength": 139092,
      "byteOffset": 3492636,
      "target": 34962
    },
    {
      "buffer": 0,
      "byteLength": 185456,
      "byteOffset": 3631728,
      "target": 34962
    },
    {
      "buffer": 0,
      "byteLength": 92728,
      "byteOffset": 3817184,
      "target": 34962
    },
    {
      "buffer": 0,
      "byteLength": 240,
      "byteOffset": 3909912,
      "target": 34963
    },
    {
      "buffer": 0,
      "byteLength": 432,
      "byteOffset": 3910152,
      "target": 34962
    },
    {
      "buffer": 0,
      "byteLength": 432,
      "byteOffset": 3910584,
      "target": 34962
    },
    {
      "buffer": 0,
      "byteLength": 576,
      "byteOffset": 3911016,
      "target": 34962
    },
    {
      "buffer": 0,
      "byteLength": 288,
      "byteOffset": 3911592,
      "target": 34962
    },
    {
      "buffer": 0,
      "byteLength": 1488,
      "byteOffset": 3911880,
      "target": 34963
    },
    {
      "buffer": 0,
      "byteLength": 2304,
      "byteOffset": 3913368,
      "target": 34962
    },
    {
      "buffer": 0,
      "byteLength": 2304,
      "byteOffset": 3915672,
      "target": 34962
    },
    {
      "buffer": 0,
      "byteLength": 3072,
      "byteOffset": 3917976,
      "target": 34962
    },
    {
      "buffer": 0,
      "byteLength": 1536,
      "byteOffset": 3921048,
      "target": 34962
    }
  ],
  "buffers": [
    {
      "byteLength": 3922584,
      "uri": "Blender.bin"
    }
  ],
  "images": [
    {
      "uri": "Chimney_baseColor.png"
    },
    {
      "uri": "Chimney_occlusionRoughnessMetallic.png"
    },
    {
      "uri": "Chimney_normal.png"
    },
    {
      "uri": "Chimney_emissive.png"
    },
    {
      "uri": "Net_baseColor.png"
    },
    {
      "uri": "Net_occlusionRoughnessMetallic.png"
    },
    {
      "uri": "Net_normal.png"
    },
    {
      "uri": "Net_emissive.png"
    },
    {
      "uri": "PumpkinBase_baseColor.png"
    },
    {
      "uri": "PumpkinBase_occlusionRoughnessMetallic.png"
    },
    {
      "uri": "PumpkinBase_normal.png"
    },
    {
      "uri": "PumpkinBase_emissive.png"
    },
    {
      "uri": "Roof_baseColor.png"
    },
    {
      "uri": "Roof_occlusionRoughnessMetallic.png"
    },
    {
      "uri": "Roof_normal.png"
    },
    {
      "uri": "Roof_emissive.png"
    },
    {
      "uri": "Rope_baseColor.png"
    },
    {
      "uri": "Rope_occlusionRoughnessMetallic.png"
    },
    {
      "uri": "Rope_normal.png"
    },
    {
      "uri": "Rope_emissive.png"
    },
    {
      "uri": "Wood_baseColor.png"
    },
    {
      "uri": "Wood_occlusionRoughnessMetallic.png"
    },
    {
      "uri": "Wood_normal.png"
    },
    {
      "uri": "Wood_emissive.png"
    }
  ],
  "materials": [
    {
      "alphaMode": "BLEND",
      "emissiveFactor": [
        1.0,
        1.0,
        1.0
      ],
      "emissiveTexture": {
        "index": 3
      },
      "name": "Chimney",
      "normalTexture": {
        "index": 2
      },
      "occlusionTexture": {
        "index": 1
      },
      "pbrMetallicRoughness": {
        "baseColorTexture": {
          "index": 0
        },
        "metallicRoughnessTexture": {
          "index": 1
        }
      }
    },
    {
      "alphaMode": "BLEND",
      "emissiveFactor": [
        1.0,
        1.0,
        1.0
      ],
      "emissiveTexture": {
        "index": 7
      },
      "name": "Net",
      "normalTexture": {
        "index": 6
      },
      "occlusionTexture": {
        "index": 5
      },
      "pbrMetallicRoughness": {
        "baseColorTexture": {
          "index": 4
        },
        "metallicRoughnessTexture": {
          "index": 5
        }
      }
    },
    {
      "alphaMode": "BLEND",
      "emissiveFactor": [
        1.0,
        1.0,
        1.0
      ],
      "emissiveTexture": {
        "index": 11
      },
      "name": "PumpkinBase",
      "normalTexture": {
        "index": 10
      },
      "occlusionTexture": {
        "index": 9
      },
      "pbrMetallicRoughness": {
        "baseColorTexture": {
          "index": 8
        },
        "metallicRoughnessTexture": {
          "index": 9
        }
      }
    },
    {
      "alphaMode": "BLEND",
      "emissiveFactor": [
        1.0,
        1.0,
        1.0
      ],
      "emissiveTexture": {
        "index": 15
      },
      "name": "Roof",
      "normalTexture": {
        "index": 14
      },
      "occlusionTexture": {
        "index": 13
      },
      "pbrMetallicRoughness": {
        "baseColorTexture": {
          "index": 12
        },
        "metallicRoughnessTexture": {
          "index": 13
        }
      }
    },
    {
      "alphaMode": "BLEND",
      "emissiveFactor": [
        1.0,
        1.0,
        1.0
      ],
      "emissiveTexture": {
        "index": 19
      },
      "name": "Rope",
      "normalTexture": {
        "index": 18
      },
      "occlusionTexture": {
        "index": 17
      },
      "pbrMetallicRoughness": {
        "baseColorTexture": {
          "index": 16
        },
        "metallicRoughnessTexture": {
          "index": 17
        }
      }
    },
    {
      "alphaMode": "BLEND",
      "emissiveFactor": [
        1.0,
        1.0,
        1.0
      ],
      "emissiveTexture": {
        "index": 23
      },
      "name": "Wood",
      "normalTexture": {
        "index": 22
      },
      "occlusionTexture": {
        "index": 21
      },
      "pbrMetallicRoughness": {
        "baseColorTexture": {
          "index": 20
        },
        "metallicRoughnessTexture": {
          "index": 21
        }
      }
    }
  ],
  "meshes": [
    {
      "name": "Cube",
      "primitives": [
        {
          "attributes": {
            "NORMAL": 2,
            "POSITION": 1,
            "TANGENT": 3,
            "TEXCOORD_0": 4
          },
          "indices": 0,
          "material": 5,
          "mode": 4
        }
      ]
    },
    {
      "name": "Cube",
      "primitives": [
        {
          "attributes": {
            "NORMAL": 7,
            "POSITION": 6,
            "TANGENT": 8,
            "TEXCOORD_0": 9
          },
          "indices": 5,
          "material": 1,
          "mode": 4
        }
      ]
    },
    {
      "name": "Cube",
      "primitives": [
        {
          "attributes": {
            "NORMAL": 12,
            "POSITION": 11,
            "TANGENT": 13,
            "TEXCOORD_0": 14
          },
          "indices": 10,
          "material": 2,
          "mode": 4
        }
      ]
    },
    {
      "name": "Cube",
      "primitives": [
        {
          "attributes": {
            "NORMAL": 17,
            "POSITION": 16,
            "TANGENT": 18,
            "TEXCOORD_0": 19
          },
          "indices": 15,
          "material": 4,
          "mode": 4
        }
      ]
    },
    {
      "name": "Cube",
      "primitives": [
        {
          "attributes": {
            "NORMAL": 22,
            "POSITION": 21,
            "TANGENT": 23,
            "TEXCOORD_0": 24
          },
          "indices": 20,
          "material": 3,
          "mode": 4
        }
      ]
    },
    {
      "name": "Cube",
      "primitives": [
        {
          "attributes": {
            "NORMAL": 27,
            "POSITION": 26,
            "TANGENT": 28,
            "TEXCOORD_0": 29
          },
          "indices": 25,
          "material": 0,
          "mode": 4
        }
      ]
    }
  ],
  "nodes": [
    {
      "children": [
        1
      ],
      "name": "RootNode",
      "scale": [
        0.00999999977648258,
        0.00999999977648258,
        0.00999999977648258
      ]
    },
    {
      "children": [
        2,
        3,
        4,
        5,
        6,
        7
      ],
      "name": "Cube"
    },
    {
      "mesh": 0,
      "name": "Cube"
    },
    {
      "mesh": 1,
      "name": "Cube"
    },
    {
      "mesh": 2,
      "name": "Cube"
    },
    {
      "mesh": 3,
      "name": "Cube"
    },
    {
      "mesh": 4,
      "name": "Cube"
    },
    {
      "mesh": 5,
      "name": "Cube"
    }
  ],
  "samplers": [
    {
      "magFilter": 9729,
      "minFilter": 9985,
      "wrapS": 10497,
      "wrapT": 10497
    }
  ],
  "scene": 0,
  "scenes": [
    {
      "name": "Scene",
      "nodes": [
        0
      ]
    }
  ],
  "textures": [
    {
      "sampler": 0,
      "source": 0
    },
    {
      "sampler": 0,
      "source": 1
    },
    {
      "sampler": 0,
      "source": 2
    },
    {
      "sampler": 0,
      "source": 3
    },
    {
      "sampler": 0,
      "source": 4
    },
    {
      "sampler": 0,
      "source": 5
    },
    {
      "sampler": 0,
      "source": 6
    },
    {
      "sampler": 0,
      "source": 7
    },
    {
      "sampler": 0,
      "source": 8
    },
    {
      "sampler": 0,
      "source": 9
    },
    {
      "sampler": 0,
      "source": 10
    },
    {
      "sampler": 0,
      "source": 11
    },
    {
      "sampler": 0,
      "source": 12
    },
    {
      "sampler": 0,
      "source": 13
    },
    {
      "sampler": 0,
      "source": 14
    },
    {
      "sampler": 0,
      "source": 15
    },
    {
      "sampler": 0,
      "source": 16
    },
    {
      "sampler": 0,
      "source": 17
    },
    {
      "sampler": 0,
      "source": 18
    },
    {
      "sampler": 0,
      "source": 19
    },
    {
      "sampler": 0,
      "source": 20
    },
    {
      "sampler": 0,
      "source": 21
    },
    {
      "sampler": 0,
      "source": 22
    },
    {
      "sampler": 0,
      "source": 23
    }
  ]
}